<svg width="232" height="217" viewBox="0 0 232 217" fill="none" xmlns="http://www.w3.org/2000/svg">
<path d="M179.139 116.007C179.139 153.639 148.632 184.146 111 184.146C73.3677 184.146 42.8607 153.639 42.8607 116.007C42.8607 78.3742 73.3677 47.8672 111 47.8672C148.632 47.8672 179.139 78.3742 179.139 116.007Z" fill="#999999"/>
<path d="M146.743 4.05449L153.446 0.104248L150.214 15.0672L148.179 27.636L145.546 33.3818L138.484 45.4718L134.294 50.2599C132.578 49.9407 128.859 49.2304 127.71 48.9431C126.561 48.6559 125.236 46.5092 124.718 45.4718C125.596 42.958 127.423 37.7629 127.71 37.0925C127.998 36.4222 131.581 32.6635 133.336 30.868L138.484 27.636L142.314 23.3267V18.0598L144.11 10.1594L146.743 4.05449Z" fill="#999999"/>
<path d="M101.503 23.2147L106.808 1.47267L109.617 0.640454L110.553 7.29827V45.2686C107.328 45.8928 100.608 47.1411 99.5263 47.1411C98.4444 47.1411 98.1046 45.8928 98.0699 45.2686L101.503 23.2147Z" fill="#999999"/>
<path d="M76.6964 24.4024L71.4529 19.6107L72.3569 28.561L70.1872 37.692V50.2585L75.3403 54.9596C78.2635 53.7843 84.1097 51.4157 84.1097 51.3433V48.4504L81.6688 41.6699L80.7647 34.5278L79.6798 30.3691L76.6964 24.4024Z" fill="#999999"/>
<path d="M71.9049 55.8636L31.0413 29.8267L31.9454 33.1717L64.2204 63.1865L69.7352 60.2031L71.9049 55.8636Z" fill="#999999"/>
<path d="M149.621 55.9432L190.485 29.9063L189.581 33.2513L161.333 65.999L151.791 60.2827L149.621 55.9432Z" fill="#999999"/>
<path d="M6.99333 67.7972L1.93058 68.7013V70.419C1.93058 70.853 5.30575 71.2026 6.99333 71.3231C12.0259 72.6491 22.4528 75.3914 23.8993 75.753C25.3458 76.1146 32.8796 79.3994 36.4657 80.9966L48.3993 83.0759C50.0266 82.1718 53.4982 80.2552 54.3661 79.8213C55.234 79.3873 55.0894 75.8434 54.9086 74.1257L50.6595 71.3231H47.4049C43.6982 70.4492 36.1764 68.5205 35.7425 67.7972C35.3085 67.074 28.3894 65.2659 24.9841 64.4523L15.8531 66.7124L6.99333 67.7972Z" fill="#999999"/>
<path d="M216.493 72.1438L220.701 74.1327V75.8504C220.701 76.2844 217.326 76.6339 215.638 76.7545C210.606 78.0804 201.387 82.9669 199.941 83.3285C198.494 83.6901 190.475 82.0762 186.889 83.6734L174.232 88.5073C172.605 87.6032 172.325 84.1073 171.457 83.6734C170.589 83.2394 167.542 81.2748 167.723 79.5571L171.972 76.7545H175.227C178.934 75.8806 186.455 73.9519 186.889 73.2286C187.323 72.5053 194.397 74.0423 197.803 73.2287L206.779 72.1438H216.493Z" fill="#999999"/>
<path d="M0.0201721 111.889L42.1325 99.7895H44.5681L43.1538 113.146L4.5771 114.167L0.491583 113.146L0.0201721 111.889Z" fill="#999999"/>
<path d="M231.316 117.795L181.525 105.188H179.09L180.504 118.545L226.759 120.074L230.845 119.053L231.316 117.795Z" fill="#999999"/>
<path d="M33.7003 191.459L52.3621 151.815L53.9676 149.984L63.0791 159.852L38.4176 189.534L34.9564 191.933L33.7003 191.459Z" fill="#999999"/>
<path d="M108.858 231.361L95.962 184.985L95.9567 182.549L109.316 183.934L111.127 226.799L110.114 230.887L108.858 231.361Z" fill="#999999"/>
<path d="M190.447 201.462L150.341 174.863L148.693 173.07L159.485 165.074L189.042 196.565L191.054 200.264L190.447 201.462Z" fill="#999999"/>
<path d="M32.1544 139.23L41.1111 128.545H44.0967L48.6536 136.088V143.316L37.6541 145.987L24.4547 149.916L15.7337 158.244L6.61986 164.844L3.86999 164.294L15.7337 147.951L32.1544 139.23Z" fill="#999999"/>
<path d="M67.8934 191.091L72.9662 178.615L72.9662 174.072L80.3438 175.719L84.5272 179.771L81.1388 189.551L74.0541 199.947L74.0541 213.346L69.2026 223.126L65.3522 224.974L65.3522 202.95L67.8934 191.091Z" fill="#999999"/>
<path d="M184.557 161.294L174.22 152.662L169.893 151.278L173.709 144.752L178.843 142.003L187.126 148.21L195.078 157.301L207.632 162.207L219.303 168.772L218.753 171.05L195.078 164.136L184.557 161.294Z" fill="#999999"/>
<path d="M134.958 204.49L128.916 187.257L125.747 184.002L132.181 180.035L138.005 180.02L142.4 189.391L144.577 201.782L152.65 212.677L157.272 221.773L155.803 225.783L139.663 210.983L134.958 204.49Z" fill="#999999"/>
</svg>
